<?xml version="1.0" encoding="UTF-8"?>
<svg id="a" data-name="Layer 1" xmlns="http://www.w3.org/2000/svg" width="590.46" height="674.21" viewBox="0 0 590.46 674.21">
  <g id="b" data-name="Layer 11">
    <path d="M275.36,339.74c-.34-.74-1.12-2.22-1.62-3-5.28-8.2-12.58-14.39-21.59-19.07-5.52-2.86-10.78-5.71-16.76-7.67l-36.77-12.03c-9.87-3.23-19.46-6.29-28.36-11.61-11.25-6.72-20.77-16.36-26.08-27.96-7.51-16.41-9.17-33.05-7.62-50.65l4.02-45.72c.77-8.76-1.09-17.13-3.26-25.65-4.18-16.41-14.51-31.15-29.61-39.63-11.34-6.37-32.75-13.44-45.71-17.26-2.58-.76-4.99-1.35-7.37-2.27l-7.17-2.77c-19.68-7.62-28.39-11.67-43.1-26.9-1.56-1.61-2.99-3.35-4.33-5.16v122.48c21.02-.03,41.19-.36,59.88,12.78,10.35,7.28,17.11,17.62,22.53,28.73,4.98,10.18,7.45,20.81,10.07,31.76l3.25,13.69c7.39,31.08,20.84,63.04,54.91,72.85,37.29,10.73,84.16-6.15,117.85,13.89.37.21,1.4,1.52,1.06,1.74l-1.37.86c-20.61-5.33-44.07,1.02-64.04,6.85l-30.48,8.92c-10.72,3.14-21.27,3.7-32.18,2.35s-21.06-6.04-30.25-12.22c-9.19-6.17-15.87-14.69-22.75-23.33-10.07-12.64-17.5-26.2-25.27-40.31-11.62-21.08-30.49-37.17-55.44-41.06-2.53-.4-5.13-.55-7.78-.54v88.61c1.72,0,3.45.06,5.2.21,14.88,1.32,28.77,7.08,40.52,15.58,18.53,13.38,30.84,27.74,51.1,40.68,25.09,16.02,46.01,21.46,74.9,8.67,17.1-7.57,31.97-18.2,46.75-29.47,18.83-14.37,22.91-16.36,47.14-21.25,0,0,1.54-.1,1.65-.12l4.99-.23c.72-.03,1.92-.46,3.37-.83,0,0,.08-3.18-.25-3.92h-.01l-.02-.02Z" fill="#9c9b9a"/>
    <path d="M267.21,319.85l-.72-.71c-.85-.49-8.27-9.63-8.27-9.63l-.85-.81-.79-.75-1.61-1.75s-4.42-3.41-5.79-4.91c0-.16-1.62-1.22-1.62-1.47l-8.92-6.4-9.84-6.44c-2.21-1.44-4.21-3.1-5.92-4.73-14.21-8.87-25.01-15.8-35.32-29.05-7.8-10.03-15.52-24.54-13.29-37.44-.51-2.67,4.81-32.45,7.85-42.11.87-2.78,2.94-9.52,3.18-10.08l3.59-8.16,14.41-35.86c1.71-5.85,1.36-10.14,1.68-15.3.99-16.21-4-31.77-15.18-43.78-6.14-6.6-12.98-11.82-20.28-17.19l-28.51-20.98c-9.34-6.88-18.08-14.02-25.62-22.26H0v42.36c1.34,1.82,2.78,3.54,4.33,5.16,14.71,15.23,23.41,19.28,43.1,26.9l7.17,2.77c2.37.92,4.79,1.51,7.37,2.27,12.95,3.82,34.38,10.9,45.71,17.26,15.08,8.49,25.43,23.23,29.61,39.63,2.18,8.53,4.04,16.89,3.26,25.65l-4.02,45.72c-1.54,17.6.11,34.24,7.62,50.65,5.31,11.61,14.84,21.24,26.08,27.96,8.9,5.32,18.49,8.38,28.36,11.61l36.77,12.03c5.98,1.95,11.24,4.79,16.76,7.67,9.01,4.69,16.31,10.86,21.59,19.07l1.53-.28c-1.75-7.68-5.04-10.64-8.05-16.61h.02Z" fill="#284b9f"/>
    <path d="M590.45,506.12c-3.97.02-7.75.23-10.87.65-14.92,2-30.24,3.05-44.53,2-14.29-1.05-25.16-5.86-37.24-14.43-7.55-5.36-18.06-19.34-21.43-27.51l-.72-.92c-.12-.15-.81-1.99-.96-2.46,0,0-2.58-6.58-2.65-6.79s-6.92-23.66-6.92-23.66l-.77-2.41h0c-.17-.08-1.61-6.6-1.98-7.6l-5.66-15.35c-1.07-2.9-12.22-28.48-15.93-25.2-3.09,13.12-10.36,30.42-17.21,42.02,7.12,14.67,10.25,41.9,9.65,58.97-.94,26.73-2.34,46.72,13.66,68.79,7.65,10.55,17.69,18.68,28.77,24.68,1.5-.11,52.02,13.44,52.02,13.44,16.23,4.96,33.61,9.17,45.42,21.96.41.45,14.37,14.95,17.36,22.3v-128.51h-.01v.03Z" fill="#284b9f"/>
    <path d="M268.48,338.56c-33.71-20.04-80.56-3.16-117.85-13.89-34.08-9.81-47.52-41.76-54.91-72.85l-3.25-13.69c-2.61-10.96-5.09-21.58-10.07-31.76-5.42-11.11-12.17-21.45-22.53-28.73C41.18,164.51,21.01,164.83,0,164.86v76.94c2.64,0,5.23.14,7.77.54,24.97,3.89,43.83,19.97,55.44,41.06,7.78,14.11,15.21,27.66,25.27,40.31,6.87,8.63,13.52,17.13,22.75,23.33,9.22,6.2,18.94,10.81,30.25,12.22,11.31,1.4,21.47.79,32.18-2.35l30.48-8.92c19.96-5.84,43.42-12.18,64.04-6.85l1.37-.86c.34-.22-.71-1.52-1.06-1.74h-.01v.02Z" fill="#284b9f"/>
    <path d="M590.1,4.4V.02h-54.81v-.02c-15.55,9.31-27.4,23.55-31.99,41.39-3.51,13.62-6.44,26.65-7.96,40.74-2.19,20.14-3.99,44.66-17.11,61.57-9.51,12.28-22.16,21.16-36.55,25.66.29.8.99,2.05,1.83,2.84,13.28,12.68,25,26.29,35.34,41.05l8-.9c10-1.14,19.18-4.79,27.32-10.38l8.85-6.08,2.49-2.63c1.13-1.75,2.6-3.4,4.2-4.73l.83-.93c.45-1.29,1.34-2.59,2.55-3.8,4.97-7.53,8.81-15.47,12.2-23.93l14.25-35.46c4.71-11.73,10.64-22.28,18.67-31.99,4.07-3.91,8.06-7.45,12.22-10.54V4.87c-.19-.05-.35-.2-.35-.47h.02Z" fill="#284b9f"/>
    <path d="M523.33,357.55c17.36,9.22,36.86,10.4,55.55,4.2,4.7-1.55,8.37-3.18,11.58-4.88v-72.8l-3.31,3.21c-19.43,18.84-47.04,23.03-72.04,15.9,3.08,17.36,3.31,35.07,3.41,52.64,1.36.37,3.34.95,4.81,1.74h0Z" fill="#a6a5a2"/>
    <path d="M590.45,427.53c-15.36,3.69-33.45,7.78-34.23,7.14h-3.06l-1.83-.06-1.37-.08-5.66-.82c-7.64-1.96-14.8-5.28-21.94-9.31-6.15-3.47-10-8.43-14.5-12.98-11.22-11.29-20.45-25.45-28.51-38.84-1.72,12.89-8.64,29.66-8.64,29.92-.06,2.42-9.02,18.94-9.02,18.94l7.55,26.64,3.82,11.55s2.48,6.13,2.6,6.29c.22.23.6.78.72.92,3.37,8.15,13.88,22.14,21.44,27.51,12.07,8.57,22.94,13.38,37.24,14.43,14.82,1.09,29.61,0,44.53-2,3.13-.42,6.9-.63,10.86-.65v-78.59h0ZM577.68,439.42c-.22,0-.41-.18-.41-.41s.18-.4.41-.4.4.17.4.4-.17.41-.4.41Z" fill="#a6a5a2"/>
    <path d="M381.38,424.3c8.75,8.8,15.13,19.81,17.77,32.36,5.36,25.31-5.08,58.86-11.52,83.21l-.11,1.39c-.49,1.54-.73,3.33-.79,5.05-4.19,12.05-2.16,37.51,5.61,49.36,8.57,13.09,16.89,22.12,29.73,29.83,10.48,6.31,21.18,12.2,32.16,17.95,13.23,6.91,32.51,18.58,40.57,30.73h-123.52c-1.09-1.26-2.45-2.68-4.02-3.98-34.52-28.6-54.49-61.02-30.28-105.49l17.88-32.87c5.49-10.09,9.41-20.44,12.49-31.49,9.17-32.95-7.13-57.31-28.75-80.29l3-3.33c0-.25,1.26-1.33,1.61-1.69l8.5-8.4c4.06-4.01,26,13.98,29.63,17.64h.01l.03.02Z" fill="#284b9f"/>
    <path d="M590.45,634.63c-3.85-9.76-9.63-18.81-18.83-24.39-4.04-5.98-23.85-14.06-43.96-19.88-21.93-6.34-44.26-10.77-49.8-13.58-13.36-6.76-17.88-8.1-27.24-19.83-6.95-8.73-6.35-7.88-11.23-17.94-5.99-12.34,9.29-52.49,3.93-77.79-2.65-12.55-9.02-23.56-17.77-32.36h-.01c-3.63-3.66-25.57-21.65-29.63-17.64l-8.5,8.4c-.36.36-1.61,1.43-1.61,1.69l-4.44,3c21.62,22.99,22.37,47.85,14.71,81.64-1.62,5.84-7.84,22.57-10.29,38.25-2.19,13.97-.72,27.36-.72,27.36,1.69,35.27,36.17,54.65,63.64,70.85,24.71,14.56,45.59,31.2,46.11,31.8h95.64v-39.56h-.01v-.02Z" fill="#9c9b9a"/>
    <path d="M272.24,344.48l-4.99.23-1.65.12h-.01c-24.23,4.88-28.32,6.88-47.14,21.24-14.77,11.27-29.64,21.9-46.74,29.47-28.9,12.78-49.82,7.35-74.9-8.67-20.26-12.94-32.58-27.29-51.1-40.68-11.75-8.5-25.65-14.26-40.52-15.58-1.74-.15-3.47-.22-5.19-.22v66.57c5.38-1.7,11.12-2.42,17.56-2.18,16.89.62,32.28,4.39,48.14,12.16l33.34,16.36c9.69,4.75,19.43,7.13,29.97,9.33,13.76,2.87,27.66,2.53,40.92-3.56,8-3.67,17.62-8.61,23.57-15.22l31.12-34.57,10.29-10.75c10.41-10.89,23.67-17.48,37.27-23.18l3.44-1.71-3.37.83h-.01Z" fill="#284b9f"/>
    <path d="M279.32,352.93l.11,3.14s.12.54.25,1.1c.14.64.27,1.35.27,1.39s.1.57.17,1.05c.03.22.07.44.09.56.01.07,0,.13.02.13,2.07,12.69,6.53,25.19,13.24,36.51,3.26,5.49,6.78,10.53,10.38,15.69l11.08,15.86c12.87,18.44,23.41,39.85,19.7,63.36-2.49,15.78-9.92,30.01-19.46,42.58-17.77,23.45-41.52,38.98-49.81,68.08-5.94,20.86-1.77,41.91,9.87,59.58l8.05,12.23h-81.46l-5.8-18.56c-2.26-7.22-3.99-14.39-4.56-21.54-.76-10.95.68-21.68,4.59-32.38.6-1.67,1-3.85,1.18-5.31,10.33-15.79,22.16-29.14,38.99-38.44,13.38-7.4,25.16-15.84,37.04-25.38,19.15-15.37,29.52-38.22,27.73-63.5-.95-13.49-5.25-26.1-9.93-38.82-8.34-22.67-11.45-27.36-15.22-52.49-1.18-7.79.16-19.34,1.51-26.76l1.98,1.89v.02h-.01Z" fill="#284b9f"/>
    <path d="M315.19,399.3c7.89,6.24,15.04,12.32,22.42,19.28l1.02,1.51c21.62,22.99,37.92,47.34,28.75,80.29-3.08,11.05-7,21.4-12.49,31.49l-17.88,32.87c-24.21,44.5-4.24,76.9,30.28,105.49,1.56,1.3,2.92,2.71,4.02,3.98h-88.02l-8.05-12.23c-11.64-17.68-15.81-38.73-9.87-59.58,8.29-29.1,32.05-44.63,49.81-68.08,9.52-12.57,16.97-26.8,19.46-42.58,3.71-23.51-6.84-44.92-19.7-63.36l-11.08-15.86c-3.61-5.16-7.12-10.19-10.38-15.69-6.71-11.31-11.17-23.82-13.24-36.51-.24-1.41-.75-3.63-.81-4.23s-.11-3.14-.11-3.14l.83-.81,3.3,7.57c4.82,11.09,30.64,38.72,31.74,39.59h.02-.02Z" fill="#9c9b9a"/>
    <path d="M535.3.02c-15.55,9.32-27.4,23.56-31.99,41.39-3.51,13.63-6.44,26.65-7.96,40.74-2.18,20.14-3.98,44.66-17.11,61.57-9.52,12.28-22.17,21.16-36.55,25.66-12.14-8.78-23.35-18.98-36.35-26.74,1.38-.3,3.1-.89,4.54-1.74,19.62-11.43,32.13-30.41,34.89-52.94l.07-29.32c-2.28-17.92-3.57-41.7.08-58.63h90.38-.01.01Z" fill="#9c9b9a"/>
    <path d="M590.45,190.27c-7.12,10.85-13.92,22.01-21.91,33.09-3.55,4.91-11.08,13.73-15.95,16.74-.26.16-.67.57-.91.78-1.06,1.17-2.58,2.13-4.27,3.12-17.07,9.87-27.34,10.94-46.59,9.05,5.21,16.33,11.5,32.75,14.5,49.7,25,7.13,52.61,2.93,72.04-15.9l3.1-3.01v-93.58h-.01Z" fill="#284b9f"/>
    <path d="M280.14,352.1l-.83.79-1.98-1.85-.35-2.46c-.06-.45-.83-.02-1.41.27l-.29-1.1s-1.1-3.75.32-4.11c0,0,.08-3.19-.25-3.92s-1.1-2.22-1.59-3c0,0-3.44-10.93-6.41-16.89,8.04,8.1,11.5,20.91,12.79,32.25h0v.02Z" fill="#284b9f"/>
    <path d="M256.92,307.95l-1.58-1.75,1.58,1.75Z" fill="#2766b1"/>
    <path d="M258.54,309.52l-.84-.81.84.81Z" fill="#2766b1"/>
    <path d="M476.38,466.84l-.72-.92c.21.23.6.65.72.92Z" fill="#9c9b9a"/>
    <path d="M590.45,356.87c-3.21,1.71-6.88,3.33-11.58,4.88-18.68,6.18-38.18,5.02-55.55-4.2-1.48-.78-3.45-1.37-4.81-1.74.02,2.53-.89,5.87-1.11,9.24-.76,11.4-5.95,35.24-10.58,45.26,4.52,4.54,9.4,10.6,15.55,14.07,7.14,4.03,14.3,7.35,21.94,9.32l1.88.27c.37.02.97.14,1.42.22.49.09,1,.14,1.48.19.17,0,.34.06.5.08.07.01.13.03.2.03.05,0,.16.01.16.01l1.37.08,1.83.06h3.06c10.99-.03,21.85-2.35,32.63-5.98l1.59-.54v-71.27h0l.02.02Z" fill="#284b9f"/>
    <circle cx="577.68" cy="439.01" r=".4" fill="#9c9b9a"/>
    <path d="M277.34,351.04c-1.35,7.25-2.69,18.54-1.51,26.17,3.78,24.57,6.88,29.15,15.22,51.34,4.68,12.44,8.97,24.77,9.93,37.97,1.79,24.73-6.36,49.36-25.51,64.4-11.88,9.32-13.32,12.35-30.92,22.1-12.3-1.44-26.69-7.86-36.9-12.07-17.5-7.21-33.31-16.13-29.01-16.98,18.65-3.38,29.94-7.14,46.45-16.6,5.88-3.37,11.42-7.31,15.93-12.39,20.51-23.03,19.5-49.83,18.72-78.76-.2-7.48.32-14.68.85-22.02.91-12.53,3.46-24.44,9.58-35.51l5.42-9.81c.58-.3,1.35-.72,1.41-.27l.35,2.46v-.02h.01-.02Z" fill="#9c9b9a"/>
    <circle cx="567.18" cy="602.58" r=".4" fill="#a6a5a2"/>
    <line x1="280.01" y1="358.58" x2="279.97" y2="358.6" fill="none"/>
    <path d="M590.45,81.31c-8.18,5.45-16.91,13.39-23.31,24.74-8.14,14.41-13.87,38.1-23.88,57.72-9.8,19.19-21.33,32.78-22.17,33.26-15.78,12.03-22.18,13.18-42.22,16.24,8.31,14.22,18.74,23.24,21.75,40.2,11.99,3.42,35.28.32,50.86-12.16,16.9-13.55,28.05-32.43,36.13-46.88,0,0,1.1-1.39,2.85-3.59v-109.51h-.01v-.02Z" fill="#9c9b9a"/>
    <path d="M276.88,347.63l-5.42,9.81c-6.11,11.08-8.67,22.98-9.58,35.51-.53,7.34-1.05,14.53-.85,22.02.78,28.94,1.79,55.73-18.72,78.76-4.52,5.08-10.07,9.02-15.93,12.39-16.51,9.46-28.28,17.1-46.94,20.48-19.04-8.7-57.97-41.41-46.41-41.55,29.21-.38,58.81-11.17,64.16-13.67,17.57-8.2,23.36-14.25,39.6-63.37,7.25-21.92,21.12-47.98,39.79-61.46l.29,1.1h.01v-.02Z" fill="#284b9f"/>
    <path d="M275.77,347.17l-11.53,10.96c-8.32,10.84-10.05,12.4-16.28,23.75-3.55,6.46-5.89,12.23-8.73,19.41-10.62,26.96-12.95,54.25-38.82,71.14-5.69,3.73-12.09,6.08-18.64,7.82-18.43,4.84-33.34,5-50.4,7.05-1.79-2.25-14.27-16.7-24.72-32.82-12.28-18.92-21.03-37.95-15.49-35.08,24.17,12.48,40.25,14.25,50.71,14.57,19.07.59,34.79-1.23,68.27-40.82,33.48-39.59,65.47-49.48,65.47-49.48l.16,3.51h0Z" fill="#9c9b9a"/>
  </g>
</svg>