<?xml version="1.0" encoding="UTF-8"?>
<svg id="Layer_2" data-name="Layer 2" xmlns="http://www.w3.org/2000/svg" viewBox="0 0 420.33 435.08">
  <path d="M372.23,0c-3.54,12.5-5.58,30.17-31.31,48.77-32.68,23.62-85.02,11.71-124.79,46.74-43.11,37.96-10.44,112.14-42.35,149.68-41.36,48.65-108.16,20.87-146.81,65.57-25.31,29.27-19.33,54.99-21.33,86.21l44.86,38.11c-.13-36.31-1.54-55.35,17.86-81.1,33.3-44.2,95.21-22.44,140.87-60.85,45.38-38.17,6.23-110.14,48.14-155.89,38.79-42.35,89.12-16.7,135.55-55.01C419.25,60.51,418.57,22.49,420.33.01h-48.11,0Z" style="fill: #5ab848;"/>
  <rect width="94.05" height="112.43" style="fill: #d4798c; opacity: 0;"/>
</svg>